HIERARCHY
ROOT hip
{
  OFFSET 0 0 0
  CHANNELS 6 Xposition Yposition Zposition Zrotation Yrotation Xrotation
  JOINT abdomen
  {
    OFFSET 0 20.6881 -0.73152
    CHANNELS 3 Zrotation Xrotation Yrotation
    JOINT chest
    {
      OFFSET 0 11.7043 -0.48768
      CHANNELS 3 Zrotation Xrotation Yrotation
      JOINT neck
      {
        OFFSET 0 22.1894 -2.19456
        CHANNELS 3 Zrotation Xrotation Yrotation
        JOINT head
        {
          OFFSET -0.24384 7.07133 1.2192
          CHANNELS 3 Zrotation Xrotation Yrotation
          JOINT leftEye
          {
            OFFSET 4.14528 8.04674 8.04672
            CHANNELS 3 Zrotation Xrotation Yrotation
            End Site
            {
              OFFSET 1 0 0
            }
          }
          JOINT rightEye
          {
            OFFSET -3.6576 8.04674 8.04672
            CHANNELS 3 Zrotation Xrotation Yrotation
            End Site
            {
              OFFSET 1 0 0
            }
          }
        }
      }
      JOINT rCollar
      {
        OFFSET -2.68224 19.2634 -4.8768
        CHANNELS 3 Zrotation Xrotation Yrotation
        JOINT rShldr
        {
          OFFSET -8.77824 -1.95073 1.46304
          CHANNELS 3 Zrotation Xrotation Yrotation
          JOINT rForeArm
          {
            OFFSET -28.1742 -1.7115 0.48768
            CHANNELS 3 Zrotation Xrotation Yrotation
            JOINT rHand
            {
              OFFSET -22.5879 0.773209 7.07136
              CHANNELS 3 Zrotation Xrotation Yrotation
              JOINT rThumb1
              {
                OFFSET -1.2192 -0.487915 3.41376
                CHANNELS 3 Zrotation Xrotation Yrotation
                JOINT rThumb2
                {
                  OFFSET -3.37035 -0.52449 3.41376
                  CHANNELS 3 Zrotation Xrotation Yrotation
                  End Site
                  {
                    OFFSET -1.78271 -1.18214 1.43049
                  }
                }
              }
              JOINT rIndex1
              {
                OFFSET -7.75947 0.938293 5.60832
                CHANNELS 3 Zrotation Xrotation Yrotation
                JOINT rIndex2
                {
                  OFFSET -2.54057 -0.884171 1.56538
                  CHANNELS 3 Zrotation Xrotation Yrotation
                  End Site
                  {
                    OFFSET -1.62519 -0.234802 1.16502
                  }
                }
              }
              JOINT rMid1
              {
                OFFSET -8.24714 1.18213 3.41376
                CHANNELS 3 Zrotation Xrotation Yrotation
                JOINT rMid2
                {
                  OFFSET -3.10165 -0.590103 1.0647
                  CHANNELS 3 Zrotation Xrotation Yrotation
                  End Site
                  {
                    OFFSET -2.48547 -0.328903 0.83742
                  }
                }
              }
              JOINT rRing1
              {
                OFFSET -8.82822 0.546677 1.51678
                CHANNELS 3 Zrotation Xrotation Yrotation
                JOINT rRing2
                {
                  OFFSET -2.60934 -0.819778 -0.0198488
                  CHANNELS 3 Zrotation Xrotation Yrotation
                  End Site
                  {
                    OFFSET -2.33842 -0.294052 0.168128
                  }
                }
              }
              JOINT rPinky1
              {
                OFFSET -8.27202 -0.0477905 -0.4584
                CHANNELS 3 Zrotation Xrotation Yrotation
                JOINT rPinky2
                {
                  OFFSET -1.82734 -0.647385 -0.700984
                  CHANNELS 3 Zrotation Xrotation Yrotation
                  End Site
                  {
                    OFFSET -1.69225 -0.51767 -0.607171
                  }
                }
              }
            }
          }
        }
      }
      JOINT lCollar
      {
        OFFSET 2.68224 19.2634 -4.8768
        CHANNELS 3 Zrotation Xrotation Yrotation
        JOINT lShldr
        {
          OFFSET 8.77824 -1.95073 1.46304
          CHANNELS 3 Zrotation Xrotation Yrotation
          JOINT lForeArm
          {
            OFFSET 28.1742 -1.7115 0.48768
            CHANNELS 3 Zrotation Xrotation Yrotation
            JOINT lHand
            {
              OFFSET 22.5879 0.773209 7.07136
              CHANNELS 3 Zrotation Xrotation Yrotation
              JOINT lThumb1
              {
                OFFSET 1.2192 -0.487915 3.41376
                CHANNELS 3 Zrotation Xrotation Yrotation
                JOINT lThumb2
                {
                  OFFSET 3.37035 -0.52449 3.41376
                  CHANNELS 3 Zrotation Xrotation Yrotation
                  End Site
                  {
                    OFFSET 1.78271 -1.18214 1.43049
                  }
                }
              }
              JOINT lIndex1
              {
                OFFSET 7.75947 0.938293 5.60832
                CHANNELS 3 Zrotation Xrotation Yrotation
                JOINT lIndex2
                {
                  OFFSET 2.54057 -0.884171 1.56538
                  CHANNELS 3 Zrotation Xrotation Yrotation
                  End Site
                  {
                    OFFSET 1.62519 -0.234802 1.16502
                  }
                }
              }
              JOINT lMid1
              {
                OFFSET 8.24714 1.18213 3.41376
                CHANNELS 3 Zrotation Xrotation Yrotation
                JOINT lMid2
                {
                  OFFSET 3.10165 -0.590103 1.0647
                  CHANNELS 3 Zrotation Xrotation Yrotation
                  End Site
                  {
                    OFFSET 2.48547 -0.328903 0.83742
                  }
                }
              }
              JOINT lRing1
              {
                OFFSET 8.82822 0.546677 1.51678
                CHANNELS 3 Zrotation Xrotation Yrotation
                JOINT lRing2
                {
                  OFFSET 2.60934 -0.819778 -0.0198488
                  CHANNELS 3 Zrotation Xrotation Yrotation
                  End Site
                  {
                    OFFSET 2.33842 -0.294052 0.168128
                  }
                }
              }
              JOINT lPinky1
              {
                OFFSET 8.27202 -0.0477905 -0.4584
                CHANNELS 3 Zrotation Xrotation Yrotation
                JOINT lPinky2
                {
                  OFFSET 1.82734 -0.647385 -0.700984
                  CHANNELS 3 Zrotation Xrotation Yrotation
                  End Site
                  {
                    OFFSET 1.69225 -0.51767 -0.607171
                  }
                }
              }
            }
          }
        }
      }
    }
  }
  JOINT rButtock
  {
    OFFSET -8.77824 4.35084 1.2192
    CHANNELS 3 Zrotation Xrotation Yrotation
    JOINT rThigh
    {
      OFFSET 0 -1.70687 -2.19456
      CHANNELS 3 Zrotation Xrotation Yrotation
      JOINT rShin
      {
        OFFSET 0 -36.8199 0.73152
        CHANNELS 3 Zrotation Xrotation Yrotation
        JOINT rFoot
        {
          OFFSET 0.73152 -45.1104 -5.12064
          CHANNELS 3 Zrotation Xrotation Yrotation
          End Site
          {
            OFFSET -1.1221 -3.69964 12.103
          }
        }
      }
    }
  }
  JOINT lButtock
  {
    OFFSET 8.77824 4.35084 1.2192
    CHANNELS 3 Zrotation Xrotation Yrotation
    JOINT lThigh
    {
      OFFSET 0 -1.70687 -2.19456
      CHANNELS 3 Zrotation Xrotation Yrotation
      JOINT lShin
      {
        OFFSET 0 -36.8199 0.73152
        CHANNELS 3 Zrotation Xrotation Yrotation
        JOINT lFoot
        {
          OFFSET -0.73152 -45.1104 -5.12064
          CHANNELS 3 Zrotation Xrotation Yrotation
          End Site
          {
            OFFSET 1.1221 -3.69964 12.103
          }
        }
      }
    }
  }
}
MOTION
Frames:	4
Frame Time:	0.00833333
51.2011 85.1237 31.6708 0.0 0.0 0.0 0.435975 -0.0238512 0.0128202 0.121276 -0.0396247 0.0210495 -1.18699e-14 1.59028e-15 -5.59082e-17 -3.57315e-14 9.54166e-15 -1.81702e-16 -0.0 0.0 0.0 -0.0 0.0 0.0 -5.96442e-15 1.11816e-16 9.93923e-17 -1.22965e-13 2.95071e-15 0.0 -2.13356e-12 7.32919e-13 1.90833e-14 -2.45557e-11 -1.82161e-13 -1.87653e-13 -5.79001e-11 1.18948e-12 -3.435e-13 -1.00002e-10 2.04828e-12 -6.05896e-13 -5.7896e-11 1.18833e-12 -3.49861e-13 7.73091 5.47488 0.417314 -5.79001e-11 1.18913e-12 -3.4668e-13 2.90554 0.965183 0.102902 -5.78921e-11 1.18973e-12 -3.50656e-13 10.2786 0.731801 0.0259123 -5.7907e-11 1.1935e-12 -3.4668e-13 2.22167 -0.733487 -0.20892 -6.16184e-15 1.10652e-16 -9.93923e-17 -1.25588e-13 3.04389e-15 -2.18663e-15 -2.15398e-12 -5.50037e-13 -1.90833e-14 -2.45325e-11 1.10507e-12 -1.33583e-13 -5.78874e-11 1.19458e-12 -3.62583e-13 -9.99557e-11 2.06418e-12 -6.12257e-13 -5.78885e-11 1.19191e-12 -3.56222e-13 -7.73091 5.47488 -0.417314 -5.78871e-11 1.1942e-12 -3.59403e-13 -2.90554 0.965183 -0.102902 -5.78931e-11 1.1943e-12 -3.55427e-13 -10.2786 0.731801 -0.0259123 -5.78801e-11 1.19748e-12 -3.56222e-13 -2.22167 -0.733487 0.20892 -2.03217e-16 0.0 -3.88251e-19 0.651897 -4.7111 -0.0694735 -0.000843454 2.99809 0.00382448 -0.326288 1.72324 0.0697759 2.03217e-16 0.0 3.88251e-19 0.0330567 -2.68025 0.023162 0.00579558 -0.679767 0.0505474 0.296245 3.37021 -0.096692
49.3414 83.04 14.6971 -173.141 -43.903 -175.341 3.06372 -0.530123 1.79056 0.101087 -4.10242 0.434154 -1.1942 -0.143247 -1.32171 -1.39868 3.09127 -2.70219 -0.0 0.0 0.0 -0.0 0.0 0.0 -3.75664e-14 1.32525e-14 -3.36023e-13 16.8691 11.3545 -3.80165 -8.03251 -4.94856 10.8432 0.000319588 -0.699404 -0.0982775 2.62956e-10 2.10116e-10 1.16634e-10 4.54691e-10 3.71864e-10 1.99178e-10 2.6296e-10 2.1012e-10 1.16623e-10 7.73091 5.47488 0.417314 2.62955e-10 2.10116e-10 1.16632e-10 2.90554 0.965183 0.102902 2.62962e-10 2.10117e-10 1.16629e-10 10.2786 0.731801 0.0259123 2.62951e-10 2.10121e-10 1.16634e-10 2.22167 -0.733487 -0.20892 -3.77196e-14 1.32511e-14 -3.36235e-13 -21.0275 4.24508 4.27528 5.12856 -2.54524 -7.76319 -0.0175657 2.94086 -0.411346 1.60969e-09 1.32031e-09 -1.14559e-09 2.77276e-09 2.2896e-09 -1.99998e-09 1.60969e-09 1.32031e-09 -1.14558e-09 -7.73091 5.47488 -0.417314 1.60969e-09 1.32031e-09 -1.14558e-09 -2.90554 0.965183 -0.102902 1.60969e-09 1.32031e-09 -1.14558e-09 -10.2786 0.731801 -0.0259123 1.6097e-09 1.32031e-09 -1.14558e-09 -2.22167 -0.733487 0.20892 -2.03217e-16 0.0 -3.88251e-19 7.39209 -4.37514 11.3207 -0.0439633 3.14357 -0.398854 -2.05588 -18.0158 -9.30676 2.03217e-16 0.0 3.88251e-19 5.68979 -7.9605 -6.33555 -0.0268877 1.4031 -0.153184 1.34364 -3.74017 7.38224
49.3005 83.0123 14.6769 -173.131 -43.8282 -175.316 5.87789 -1.06579 3.6689 0.146015 -8.39639 0.877467 -2.4686 -0.303052 -2.71901 -2.56818 6.34233 -5.58192 -0.0 0.0 0.0 -0.0 0.0 0.0 -7.56249e-14 2.94074e-14 -7.26067e-13 36.5736 23.2784 -8.40728 -14.4181 -9.47479 22.4586 -0.00245887 -1.50519 -0.211561 6.56816e-10 4.33189e-10 2.78797e-10 1.1357e-09 7.68216e-10 4.76474e-10 6.5682e-10 4.332e-10 2.78781e-10 7.73091 5.47488 0.417314 6.56815e-10 4.3319e-10 2.78796e-10 2.90554 0.965183 0.102902 6.5682e-10 4.33191e-10 2.78793e-10 10.2786 0.731801 0.0259123 6.56813e-10 4.33195e-10 2.788e-10 2.22167 -0.733487 -0.20892 -7.57297e-14 2.94057e-14 -7.26294e-13 -43.9498 8.66157 8.86718 9.80907 -5.08153 -16.0212 0.00999974 6.0447 -0.849177 3.54785e-09 2.84071e-09 -2.47038e-09 6.11159e-09 4.92624e-09 -4.31299e-09 3.54786e-09 2.84071e-09 -2.47038e-09 -7.73091 5.47488 -0.417314 3.54785e-09 2.84071e-09 -2.47038e-09 -2.90554 0.965183 -0.102902 3.54785e-09 2.84071e-09 -2.47038e-09 -10.2786 0.731801 -0.0259123 3.54786e-09 2.84071e-09 -2.47039e-09 -2.22167 -0.733487 0.20892 -2.03217e-16 0.0 -3.88251e-19 14.3636 -3.86276 23.3421 -0.0869009 3.28424 -0.822779 -12.3321 -36.9961 -23.1194 2.03217e-16 0.0 3.88251e-19 10.3838 -13.2561 -13.354 -0.046041 3.52544 -0.369352 4.51329 -10.9705 15.6212
49.2543 82.9786 14.6731 -173.174 -43.8117 -175.23 8.41335 -1.53673 5.34773 0.239965 -12.2254 1.2862 -3.60242 -0.428827 -3.96523 -3.31489 9.19079 -8.20077 -0.0 0.0 0.0 -0.0 0.0 0.0 -1.0077e-13 3.95337e-14 -1.00827e-12 55.8484 33.4023 -13.4316 -18.7011 -12.7171 33.3261 -0.0062433 -2.09819 -0.295008 9.04668e-10 6.27968e-10 3.50589e-10 1.56408e-09 1.1115e-09 5.98745e-10 9.04671e-10 6.27984e-10 3.50569e-10 7.73091 5.47488 0.417314 9.04665e-10 6.2797e-10 3.50589e-10 2.90554 0.965183 0.102902 9.04669e-10 6.27971e-10 3.50587e-10 10.2786 0.731801 0.0259123 9.04666e-10 6.27975e-10 3.50595e-10 2.22167 -0.733487 -0.20892 -1.00835e-13 3.95321e-14 -1.00851e-12 -65.0038 12.4486 13.104 13.3667 -7.07622 -23.4557 0.0752635 8.82074 -1.24717 4.94485e-09 3.95854e-09 -3.43603e-09 8.51819e-09 6.86468e-09 -5.99873e-09 4.94486e-09 3.95853e-09 -3.43603e-09 -7.73091 5.47488 -0.417314 4.94485e-09 3.95853e-09 -3.43603e-09 -2.90554 0.965183 -0.102902 4.94485e-09 3.95853e-09 -3.43603e-09 -10.2786 0.731801 -0.0259123 4.94486e-09 3.95854e-09 -3.43604e-09 -2.22167 -0.733487 0.20892 -2.03217e-16 0.0 -3.88251e-19 20.4545 -3.28432 34.0639 -0.124059 3.43402 -1.20456 -32.6908 -49.3881 -43.6128 2.03217e-16 0.0 3.88251e-19 13.4133 -17.6288 -19.8368 -0.0476586 5.56857 -0.563159 9.04604 -16.6639 23.326
